<?xml version="1.0" encoding="UTF-8" standalone="no"?>
<!DOCTYPE svg PUBLIC "-//W3C//DTD SVG 1.1//EN"
 "http://www.w3.org/Graphics/SVG/1.1/DTD/svg11.dtd">
<!-- Generated by graphviz version 2.47.0 (20210316.0004)
 -->
<!-- Title: dbml Pages: 1 -->
<svg width="3030pt" height="2229pt"
 viewBox="0.00 0.00 3029.92 2228.92" xmlns="http://www.w3.org/2000/svg" xmlns:xlink="http://www.w3.org/1999/xlink">
<g id="graph0" class="graph" transform="scale(1 1) rotate(0) translate(4 2224.92)">
<title>dbml</title>
<!-- Appointment -->
<g id="Appointment" class="node">
<title>Appointment</title>
<ellipse fill="none" stroke="black" stroke-width="0" cx="1593.69" cy="-1109.96" rx="239" ry="214.92"/>
<polygon fill="#1d71b8" stroke="transparent" points="1426.69,-1199.96 1426.69,-1259.96 1760.69,-1259.96 1760.69,-1199.96 1426.69,-1199.96"/>
<polygon fill="none" stroke="#29235c" points="1426.69,-1199.96 1426.69,-1259.96 1760.69,-1259.96 1760.69,-1199.96 1426.69,-1199.96"/>
<text text-anchor="start" x="1441.64" y="-1221.16" font-family="Helvetica,sans-Serif" font-weight="bold" font-size="32.00" fill="#ffffff"> &#160;&#160;&#160;&#160;&#160;&#160;Appointment &#160;&#160;&#160;&#160;&#160;&#160;</text>
<polygon fill="#e7e2dd" stroke="transparent" points="1426.69,-1139.96 1426.69,-1199.96 1760.69,-1199.96 1760.69,-1139.96 1426.69,-1139.96"/>
<polygon fill="none" stroke="#29235c" points="1426.69,-1139.96 1426.69,-1199.96 1760.69,-1199.96 1760.69,-1139.96 1426.69,-1139.96"/>
<text text-anchor="start" x="1437.69" y="-1161.16" font-family="Helvetica,sans-Serif" font-weight="bold" font-size="32.00" fill="#29235c">id</text>
<text text-anchor="start" x="1462.58" y="-1161.16" font-family="Helvetica,sans-Serif" font-size="32.00" fill="#29235c"> &#160;&#160;&#160;</text>
<text text-anchor="start" x="1607.48" y="-1161.16" font-family="Helvetica,sans-Serif" font-style="italic" font-size="32.00" fill="#29235c">INTEGER</text>
<polygon fill="#e7e2dd" stroke="transparent" points="1426.69,-1079.96 1426.69,-1139.96 1760.69,-1139.96 1760.69,-1079.96 1426.69,-1079.96"/>
<polygon fill="none" stroke="#29235c" points="1426.69,-1079.96 1426.69,-1139.96 1760.69,-1139.96 1760.69,-1079.96 1426.69,-1079.96"/>
<text text-anchor="start" x="1437.69" y="-1100.16" font-family="Helvetica,sans-Serif" font-size="32.00" fill="#29235c">dog_id &#160;&#160;&#160;</text>
<text text-anchor="start" x="1607.48" y="-1101.16" font-family="Helvetica,sans-Serif" font-style="italic" font-size="32.00" fill="#29235c">INTEGER</text>
<polygon fill="#e7e2dd" stroke="transparent" points="1426.69,-1019.96 1426.69,-1079.96 1760.69,-1079.96 1760.69,-1019.96 1426.69,-1019.96"/>
<polygon fill="none" stroke="#29235c" points="1426.69,-1019.96 1426.69,-1079.96 1760.69,-1079.96 1760.69,-1019.96 1426.69,-1019.96"/>
<text text-anchor="start" x="1437.35" y="-1040.16" font-family="Helvetica,sans-Serif" font-size="32.00" fill="#29235c">walker_id &#160;&#160;&#160;</text>
<text text-anchor="start" x="1607.58" y="-1041.16" font-family="Helvetica,sans-Serif" font-style="italic" font-size="32.00" fill="#29235c">INTEGER</text>
<polygon fill="#e7e2dd" stroke="transparent" points="1426.69,-959.96 1426.69,-1019.96 1760.69,-1019.96 1760.69,-959.96 1426.69,-959.96"/>
<polygon fill="none" stroke="#29235c" points="1426.69,-959.96 1426.69,-1019.96 1760.69,-1019.96 1760.69,-959.96 1426.69,-959.96"/>
<text text-anchor="start" x="1437.69" y="-980.16" font-family="Helvetica,sans-Serif" font-size="32.00" fill="#29235c">date &#160;&#160;&#160;</text>
<text text-anchor="start" x="1587.93" y="-981.16" font-family="Helvetica,sans-Serif" font-style="italic" font-size="32.00" fill="#29235c">DATETIME</text>
<polygon fill="none" stroke="#29235c" stroke-width="2" points="1425.69,-958.96 1425.69,-1260.96 1761.69,-1260.96 1761.69,-958.96 1425.69,-958.96"/>
</g>
<!-- Dog -->
<g id="Dog" class="node">
<title>Dog</title>
<ellipse fill="none" stroke="black" stroke-width="0" cx="2207.4" cy="-1109.96" rx="251.96" ry="214.92"/>
<polygon fill="#1d71b8" stroke="transparent" points="2031.4,-1199.96 2031.4,-1259.96 2383.4,-1259.96 2383.4,-1199.96 2031.4,-1199.96"/>
<polygon fill="none" stroke="#29235c" points="2031.4,-1199.96 2031.4,-1259.96 2383.4,-1259.96 2383.4,-1199.96 2031.4,-1199.96"/>
<text text-anchor="start" x="2115.81" y="-1221.16" font-family="Helvetica,sans-Serif" font-weight="bold" font-size="32.00" fill="#ffffff"> &#160;&#160;&#160;&#160;&#160;&#160;Dog &#160;&#160;&#160;&#160;&#160;&#160;</text>
<polygon fill="#e7e2dd" stroke="transparent" points="2031.4,-1139.96 2031.4,-1199.96 2383.4,-1199.96 2383.4,-1139.96 2031.4,-1139.96"/>
<polygon fill="none" stroke="#29235c" points="2031.4,-1139.96 2031.4,-1199.96 2383.4,-1199.96 2383.4,-1139.96 2031.4,-1139.96"/>
<text text-anchor="start" x="2042.4" y="-1161.16" font-family="Helvetica,sans-Serif" font-weight="bold" font-size="32.00" fill="#29235c">id</text>
<text text-anchor="start" x="2067.29" y="-1161.16" font-family="Helvetica,sans-Serif" font-size="32.00" fill="#29235c"> &#160;&#160;&#160;</text>
<text text-anchor="start" x="2230.18" y="-1161.16" font-family="Helvetica,sans-Serif" font-style="italic" font-size="32.00" fill="#29235c">INTEGER</text>
<polygon fill="#e7e2dd" stroke="transparent" points="2031.4,-1079.96 2031.4,-1139.96 2383.4,-1139.96 2383.4,-1079.96 2031.4,-1079.96"/>
<polygon fill="none" stroke="#29235c" points="2031.4,-1079.96 2031.4,-1139.96 2383.4,-1139.96 2383.4,-1079.96 2031.4,-1079.96"/>
<text text-anchor="start" x="2042.4" y="-1100.16" font-family="Helvetica,sans-Serif" font-size="32.00" fill="#29235c">name &#160;&#160;&#160;</text>
<text text-anchor="start" x="2159.09" y="-1101.16" font-family="Helvetica,sans-Serif" font-style="italic" font-size="32.00" fill="#29235c">VARCHAR(50)</text>
<polygon fill="#e7e2dd" stroke="transparent" points="2031.4,-1019.96 2031.4,-1079.96 2383.4,-1079.96 2383.4,-1019.96 2031.4,-1019.96"/>
<polygon fill="none" stroke="#29235c" points="2031.4,-1019.96 2031.4,-1079.96 2383.4,-1079.96 2383.4,-1019.96 2031.4,-1019.96"/>
<text text-anchor="start" x="2042.21" y="-1040.16" font-family="Helvetica,sans-Serif" font-size="32.00" fill="#29235c">breed &#160;&#160;&#160;</text>
<text text-anchor="start" x="2159.25" y="-1041.16" font-family="Helvetica,sans-Serif" font-style="italic" font-size="32.00" fill="#29235c">VARCHAR(50)</text>
<polygon fill="#e7e2dd" stroke="transparent" points="2031.4,-959.96 2031.4,-1019.96 2383.4,-1019.96 2383.4,-959.96 2031.4,-959.96"/>
<polygon fill="none" stroke="#29235c" points="2031.4,-959.96 2031.4,-1019.96 2383.4,-1019.96 2383.4,-959.96 2031.4,-959.96"/>
<text text-anchor="start" x="2042.4" y="-980.16" font-family="Helvetica,sans-Serif" font-size="32.00" fill="#29235c">owner_id &#160;&#160;&#160;</text>
<text text-anchor="start" x="2230.18" y="-981.16" font-family="Helvetica,sans-Serif" font-style="italic" font-size="32.00" fill="#29235c">INTEGER</text>
<polygon fill="none" stroke="#29235c" stroke-width="2" points="2030.4,-958.96 2030.4,-1260.96 2384.4,-1260.96 2384.4,-958.96 2030.4,-958.96"/>
</g>
<!-- Appointment&#45;&gt;Dog -->
<!-- Appointment&#45;&gt;Dog -->
<g id="edge2" class="edge">
<title>Appointment:e&#45;&gt;Dog:w</title>
<path fill="none" stroke="#29235c" stroke-width="3" d="M1761.69,-1109.96C1880.59,-1109.96 1906.6,-1166.61 2020.24,-1169.82"/>
<polygon fill="#29235c" stroke="#29235c" stroke-width="3" points="2020.35,-1173.32 2030.4,-1169.96 2020.45,-1166.32 2020.35,-1173.32"/>
<text text-anchor="middle" x="2024.18" y="-1179.56" font-family="Helvetica,sans-Serif" font-size="32.00" fill="#29235c">*</text>
<text text-anchor="middle" x="1752.8" y="-1119.56" font-family="Helvetica,sans-Serif" font-size="32.00" fill="#29235c">1</text>
</g>
<!-- Walker -->
<g id="Walker" class="node">
<title>Walker</title>
<ellipse fill="none" stroke="black" stroke-width="0" cx="2207.4" cy="-1744.96" rx="256.86" ry="172.57"/>
<polygon fill="#1d71b8" stroke="transparent" points="2028.4,-1804.96 2028.4,-1864.96 2387.4,-1864.96 2387.4,-1804.96 2028.4,-1804.96"/>
<polygon fill="none" stroke="#29235c" points="2028.4,-1804.96 2028.4,-1864.96 2387.4,-1864.96 2387.4,-1804.96 2028.4,-1804.96"/>
<text text-anchor="start" x="2095.88" y="-1826.16" font-family="Helvetica,sans-Serif" font-weight="bold" font-size="32.00" fill="#ffffff"> &#160;&#160;&#160;&#160;&#160;&#160;Walker &#160;&#160;&#160;&#160;&#160;&#160;</text>
<polygon fill="#e7e2dd" stroke="transparent" points="2028.4,-1744.96 2028.4,-1804.96 2387.4,-1804.96 2387.4,-1744.96 2028.4,-1744.96"/>
<polygon fill="none" stroke="#29235c" points="2028.4,-1744.96 2028.4,-1804.96 2387.4,-1804.96 2387.4,-1744.96 2028.4,-1744.96"/>
<text text-anchor="start" x="2039.4" y="-1766.16" font-family="Helvetica,sans-Serif" font-weight="bold" font-size="32.00" fill="#29235c">id</text>
<text text-anchor="start" x="2064.29" y="-1766.16" font-family="Helvetica,sans-Serif" font-size="32.00" fill="#29235c"> &#160;&#160;&#160;</text>
<text text-anchor="start" x="2234.18" y="-1766.16" font-family="Helvetica,sans-Serif" font-style="italic" font-size="32.00" fill="#29235c">INTEGER</text>
<polygon fill="#e7e2dd" stroke="transparent" points="2028.4,-1684.96 2028.4,-1744.96 2387.4,-1744.96 2387.4,-1684.96 2028.4,-1684.96"/>
<polygon fill="none" stroke="#29235c" points="2028.4,-1684.96 2028.4,-1744.96 2387.4,-1744.96 2387.4,-1684.96 2028.4,-1684.96"/>
<text text-anchor="start" x="2039.4" y="-1705.16" font-family="Helvetica,sans-Serif" font-size="32.00" fill="#29235c">name &#160;&#160;&#160;</text>
<text text-anchor="start" x="2163.09" y="-1706.16" font-family="Helvetica,sans-Serif" font-style="italic" font-size="32.00" fill="#29235c">VARCHAR(50)</text>
<polygon fill="#e7e2dd" stroke="transparent" points="2028.4,-1624.96 2028.4,-1684.96 2387.4,-1684.96 2387.4,-1624.96 2028.4,-1624.96"/>
<polygon fill="none" stroke="#29235c" points="2028.4,-1624.96 2028.4,-1684.96 2387.4,-1684.96 2387.4,-1624.96 2028.4,-1624.96"/>
<text text-anchor="start" x="2039.14" y="-1645.16" font-family="Helvetica,sans-Serif" font-size="32.00" fill="#29235c">phone &#160;&#160;&#160;</text>
<text text-anchor="start" x="2163.25" y="-1646.16" font-family="Helvetica,sans-Serif" font-style="italic" font-size="32.00" fill="#29235c">VARCHAR(15)</text>
<polygon fill="none" stroke="#29235c" stroke-width="2" points="2026.9,-1623.96 2026.9,-1865.96 2387.9,-1865.96 2387.9,-1623.96 2026.9,-1623.96"/>
</g>
<!-- Appointment&#45;&gt;Walker -->
<!-- Appointment&#45;&gt;Walker -->
<g id="edge4" class="edge">
<title>Appointment:e&#45;&gt;Walker:w</title>
<path fill="none" stroke="#29235c" stroke-width="3" d="M1761.69,-1049.96C1905.07,-1049.96 1862.58,-1200.4 1914.72,-1333.96 1987.03,-1519.19 1830.61,-1766.35 2017.35,-1774.74"/>
<polygon fill="#29235c" stroke="#29235c" stroke-width="3" points="2017.33,-1778.24 2027.4,-1774.96 2017.48,-1771.24 2017.33,-1778.24"/>
<text text-anchor="middle" x="2021.18" y="-1784.56" font-family="Helvetica,sans-Serif" font-size="32.00" fill="#29235c">*</text>
<text text-anchor="middle" x="1752.8" y="-1059.56" font-family="Helvetica,sans-Serif" font-size="32.00" fill="#29235c">1</text>
</g>
<!-- DogOwner -->
<g id="DogOwner" class="node">
<title>DogOwner</title>
<ellipse fill="none" stroke="black" stroke-width="0" cx="2761" cy="-1139.96" rx="260.84" ry="172.57"/>
<polygon fill="#1d71b8" stroke="transparent" points="2579,-1199.96 2579,-1259.96 2944,-1259.96 2944,-1199.96 2579,-1199.96"/>
<polygon fill="none" stroke="#29235c" points="2579,-1199.96 2579,-1259.96 2944,-1259.96 2944,-1199.96 2579,-1199.96"/>
<text text-anchor="start" x="2622.8" y="-1221.16" font-family="Helvetica,sans-Serif" font-weight="bold" font-size="32.00" fill="#ffffff"> &#160;&#160;&#160;&#160;&#160;&#160;DogOwner &#160;&#160;&#160;&#160;&#160;&#160;</text>
<polygon fill="#e7e2dd" stroke="transparent" points="2579,-1139.96 2579,-1199.96 2944,-1199.96 2944,-1139.96 2579,-1139.96"/>
<polygon fill="none" stroke="#29235c" points="2579,-1139.96 2579,-1199.96 2944,-1199.96 2944,-1139.96 2579,-1139.96"/>
<text text-anchor="start" x="2590" y="-1161.16" font-family="Helvetica,sans-Serif" font-weight="bold" font-size="32.00" fill="#29235c">id</text>
<text text-anchor="start" x="2614.89" y="-1161.16" font-family="Helvetica,sans-Serif" font-size="32.00" fill="#29235c"> &#160;&#160;&#160;</text>
<text text-anchor="start" x="2790.78" y="-1161.16" font-family="Helvetica,sans-Serif" font-style="italic" font-size="32.00" fill="#29235c">INTEGER</text>
<polygon fill="#e7e2dd" stroke="transparent" points="2579,-1079.96 2579,-1139.96 2944,-1139.96 2944,-1079.96 2579,-1079.96"/>
<polygon fill="none" stroke="#29235c" points="2579,-1079.96 2579,-1139.96 2944,-1139.96 2944,-1079.96 2579,-1079.96"/>
<text text-anchor="start" x="2590" y="-1100.16" font-family="Helvetica,sans-Serif" font-size="32.00" fill="#29235c">name &#160;&#160;&#160;</text>
<text text-anchor="start" x="2719.69" y="-1101.16" font-family="Helvetica,sans-Serif" font-style="italic" font-size="32.00" fill="#29235c">VARCHAR(50)</text>
<polygon fill="#e7e2dd" stroke="transparent" points="2579,-1019.96 2579,-1079.96 2944,-1079.96 2944,-1019.96 2579,-1019.96"/>
<polygon fill="none" stroke="#29235c" points="2579,-1019.96 2579,-1079.96 2944,-1079.96 2944,-1019.96 2579,-1019.96"/>
<text text-anchor="start" x="2590" y="-1040.16" font-family="Helvetica,sans-Serif" font-size="32.00" fill="#29235c">email &#160;&#160;&#160;</text>
<text text-anchor="start" x="2701.95" y="-1041.16" font-family="Helvetica,sans-Serif" font-style="italic" font-size="32.00" fill="#29235c">VARCHAR(100)</text>
<polygon fill="none" stroke="#29235c" stroke-width="2" points="2577.5,-1018.96 2577.5,-1260.96 2944.5,-1260.96 2944.5,-1018.96 2577.5,-1018.96"/>
</g>
<!-- Dog&#45;&gt;DogOwner -->
<!-- Dog&#45;&gt;DogOwner -->
<g id="edge6" class="edge">
<title>Dog:e&#45;&gt;DogOwner:w</title>
<path fill="none" stroke="#29235c" stroke-width="3" d="M2384.4,-989.96C2498.33,-989.96 2462.87,-1159.23 2567.76,-1169.48"/>
<polygon fill="#29235c" stroke="#29235c" stroke-width="3" points="2567.85,-1172.98 2578,-1169.96 2568.18,-1165.99 2567.85,-1172.98"/>
<text text-anchor="middle" x="2584.22" y="-1179.56" font-family="Helvetica,sans-Serif" font-size="32.00" fill="#29235c">*</text>
<text text-anchor="middle" x="2375.51" y="-999.56" font-family="Helvetica,sans-Serif" font-size="32.00" fill="#29235c">1</text>
</g>
<!-- AppointmentDiscount -->
<g id="AppointmentDiscount" class="node">
<title>AppointmentDiscount</title>
<ellipse fill="none" stroke="black" stroke-width="0" cx="915.64" cy="-1587.96" rx="321.05" ry="172.57"/>
<polygon fill="#1d71b8" stroke="transparent" points="690.64,-1647.96 690.64,-1707.96 1140.64,-1707.96 1140.64,-1647.96 690.64,-1647.96"/>
<polygon fill="none" stroke="#29235c" points="690.64,-1647.96 690.64,-1707.96 1140.64,-1707.96 1140.64,-1647.96 690.64,-1647.96"/>
<text text-anchor="start" x="701.35" y="-1669.16" font-family="Helvetica,sans-Serif" font-weight="bold" font-size="32.00" fill="#ffffff"> &#160;&#160;&#160;&#160;&#160;&#160;AppointmentDiscount &#160;&#160;&#160;&#160;&#160;&#160;</text>
<polygon fill="#e7e2dd" stroke="transparent" points="690.64,-1587.96 690.64,-1647.96 1140.64,-1647.96 1140.64,-1587.96 690.64,-1587.96"/>
<polygon fill="none" stroke="#29235c" points="690.64,-1587.96 690.64,-1647.96 1140.64,-1647.96 1140.64,-1587.96 690.64,-1587.96"/>
<text text-anchor="start" x="701.64" y="-1609.16" font-family="Helvetica,sans-Serif" font-weight="bold" font-size="32.00" fill="#29235c">id</text>
<text text-anchor="start" x="726.53" y="-1609.16" font-family="Helvetica,sans-Serif" font-size="32.00" fill="#29235c"> &#160;&#160;&#160;</text>
<text text-anchor="start" x="987.42" y="-1609.16" font-family="Helvetica,sans-Serif" font-style="italic" font-size="32.00" fill="#29235c">INTEGER</text>
<polygon fill="#e7e2dd" stroke="transparent" points="690.64,-1527.96 690.64,-1587.96 1140.64,-1587.96 1140.64,-1527.96 690.64,-1527.96"/>
<polygon fill="none" stroke="#29235c" points="690.64,-1527.96 690.64,-1587.96 1140.64,-1587.96 1140.64,-1527.96 690.64,-1527.96"/>
<text text-anchor="start" x="701.64" y="-1548.16" font-family="Helvetica,sans-Serif" font-size="32.00" fill="#29235c">appointment_id &#160;&#160;&#160;</text>
<text text-anchor="start" x="987.42" y="-1549.16" font-family="Helvetica,sans-Serif" font-style="italic" font-size="32.00" fill="#29235c">INTEGER</text>
<polygon fill="#e7e2dd" stroke="transparent" points="690.64,-1467.96 690.64,-1527.96 1140.64,-1527.96 1140.64,-1467.96 690.64,-1467.96"/>
<polygon fill="none" stroke="#29235c" points="690.64,-1467.96 690.64,-1527.96 1140.64,-1527.96 1140.64,-1467.96 690.64,-1467.96"/>
<text text-anchor="start" x="701.64" y="-1488.16" font-family="Helvetica,sans-Serif" font-size="32.00" fill="#29235c">discount_id &#160;&#160;&#160;</text>
<text text-anchor="start" x="987.42" y="-1489.16" font-family="Helvetica,sans-Serif" font-style="italic" font-size="32.00" fill="#29235c">INTEGER</text>
<polygon fill="none" stroke="#29235c" stroke-width="2" points="689.64,-1466.96 689.64,-1708.96 1141.64,-1708.96 1141.64,-1466.96 689.64,-1466.96"/>
</g>
<!-- AppointmentDiscount&#45;&gt;Appointment -->
<!-- AppointmentDiscount&#45;&gt;Appointment -->
<g id="edge8" class="edge">
<title>AppointmentDiscount:e&#45;&gt;Appointment:w</title>
<path fill="none" stroke="#29235c" stroke-width="3" d="M1141.64,-1557.96C1220.94,-1557.96 1197.96,-1476.17 1236.67,-1406.96 1300.7,-1292.47 1291.51,-1176.26 1415.34,-1170.21"/>
<polygon fill="#29235c" stroke="#29235c" stroke-width="3" points="1415.78,-1173.7 1425.69,-1169.96 1415.61,-1166.7 1415.78,-1173.7"/>
<text text-anchor="middle" x="1419.47" y="-1179.56" font-family="Helvetica,sans-Serif" font-size="32.00" fill="#29235c">*</text>
<text text-anchor="middle" x="1132.75" y="-1567.56" font-family="Helvetica,sans-Serif" font-size="32.00" fill="#29235c">1</text>
</g>
<!-- Discount -->
<g id="Discount" class="node">
<title>Discount</title>
<ellipse fill="none" stroke="black" stroke-width="0" cx="1593.69" cy="-1557.96" rx="316.15" ry="214.92"/>
<polygon fill="#1d71b8" stroke="transparent" points="1372.69,-1647.96 1372.69,-1707.96 1815.69,-1707.96 1815.69,-1647.96 1372.69,-1647.96"/>
<polygon fill="none" stroke="#29235c" points="1372.69,-1647.96 1372.69,-1707.96 1815.69,-1707.96 1815.69,-1647.96 1372.69,-1647.96"/>
<text text-anchor="start" x="1469.71" y="-1669.16" font-family="Helvetica,sans-Serif" font-weight="bold" font-size="32.00" fill="#ffffff"> &#160;&#160;&#160;&#160;&#160;&#160;Discount &#160;&#160;&#160;&#160;&#160;&#160;</text>
<polygon fill="#e7e2dd" stroke="transparent" points="1372.69,-1587.96 1372.69,-1647.96 1815.69,-1647.96 1815.69,-1587.96 1372.69,-1587.96"/>
<polygon fill="none" stroke="#29235c" points="1372.69,-1587.96 1372.69,-1647.96 1815.69,-1647.96 1815.69,-1587.96 1372.69,-1587.96"/>
<text text-anchor="start" x="1383.69" y="-1609.16" font-family="Helvetica,sans-Serif" font-weight="bold" font-size="32.00" fill="#29235c">id</text>
<text text-anchor="start" x="1408.58" y="-1609.16" font-family="Helvetica,sans-Serif" font-size="32.00" fill="#29235c"> &#160;&#160;&#160;</text>
<text text-anchor="start" x="1662.48" y="-1609.16" font-family="Helvetica,sans-Serif" font-style="italic" font-size="32.00" fill="#29235c">INTEGER</text>
<polygon fill="#e7e2dd" stroke="transparent" points="1372.69,-1527.96 1372.69,-1587.96 1815.69,-1587.96 1815.69,-1527.96 1372.69,-1527.96"/>
<polygon fill="none" stroke="#29235c" points="1372.69,-1527.96 1372.69,-1587.96 1815.69,-1587.96 1815.69,-1527.96 1372.69,-1527.96"/>
<text text-anchor="start" x="1383.69" y="-1548.16" font-family="Helvetica,sans-Serif" font-size="32.00" fill="#29235c">code &#160;&#160;&#160;</text>
<text text-anchor="start" x="1591.38" y="-1549.16" font-family="Helvetica,sans-Serif" font-style="italic" font-size="32.00" fill="#29235c">VARCHAR(20)</text>
<polygon fill="#e7e2dd" stroke="transparent" points="1372.69,-1467.96 1372.69,-1527.96 1815.69,-1527.96 1815.69,-1467.96 1372.69,-1467.96"/>
<polygon fill="none" stroke="#29235c" points="1372.69,-1467.96 1372.69,-1527.96 1815.69,-1527.96 1815.69,-1467.96 1372.69,-1467.96"/>
<text text-anchor="start" x="1383.69" y="-1488.16" font-family="Helvetica,sans-Serif" font-size="32.00" fill="#29235c">percentage &#160;&#160;&#160;</text>
<text text-anchor="start" x="1701.57" y="-1489.16" font-family="Helvetica,sans-Serif" font-style="italic" font-size="32.00" fill="#29235c">FLOAT</text>
<polygon fill="#e7e2dd" stroke="transparent" points="1372.69,-1407.96 1372.69,-1467.96 1815.69,-1467.96 1815.69,-1407.96 1372.69,-1407.96"/>
<polygon fill="none" stroke="#29235c" points="1372.69,-1407.96 1372.69,-1467.96 1815.69,-1467.96 1815.69,-1407.96 1372.69,-1407.96"/>
<text text-anchor="start" x="1383.56" y="-1428.16" font-family="Helvetica,sans-Serif" font-size="32.00" fill="#29235c">description &#160;&#160;&#160;</text>
<text text-anchor="start" x="1573.64" y="-1429.16" font-family="Helvetica,sans-Serif" font-style="italic" font-size="32.00" fill="#29235c">VARCHAR(255)</text>
<polygon fill="none" stroke="#29235c" stroke-width="2" points="1371.19,-1406.96 1371.19,-1708.96 1816.19,-1708.96 1816.19,-1406.96 1371.19,-1406.96"/>
</g>
<!-- AppointmentDiscount&#45;&gt;Discount -->
<!-- AppointmentDiscount&#45;&gt;Discount -->
<g id="edge10" class="edge">
<title>AppointmentDiscount:e&#45;&gt;Discount:w</title>
<path fill="none" stroke="#29235c" stroke-width="3" d="M1141.64,-1497.96C1253.47,-1497.96 1256.3,-1610.8 1361.53,-1617.64"/>
<polygon fill="#29235c" stroke="#29235c" stroke-width="3" points="1361.59,-1621.14 1371.69,-1617.96 1361.81,-1614.14 1361.59,-1621.14"/>
<text text-anchor="middle" x="1365.47" y="-1627.56" font-family="Helvetica,sans-Serif" font-size="32.00" fill="#29235c">*</text>
<text text-anchor="middle" x="1132.75" y="-1507.56" font-family="Helvetica,sans-Serif" font-size="32.00" fill="#29235c">1</text>
</g>
<!-- AppointmentReview -->
<g id="AppointmentReview" class="node">
<title>AppointmentReview</title>
<ellipse fill="none" stroke="black" stroke-width="0" cx="915.64" cy="-1182.96" rx="306.77" ry="214.92"/>
<polygon fill="#1d71b8" stroke="transparent" points="700.64,-1272.96 700.64,-1332.96 1130.64,-1332.96 1130.64,-1272.96 700.64,-1272.96"/>
<polygon fill="none" stroke="#29235c" points="700.64,-1272.96 700.64,-1332.96 1130.64,-1332.96 1130.64,-1272.96 700.64,-1272.96"/>
<text text-anchor="start" x="711.14" y="-1294.16" font-family="Helvetica,sans-Serif" font-weight="bold" font-size="32.00" fill="#ffffff"> &#160;&#160;&#160;&#160;&#160;&#160;AppointmentReview &#160;&#160;&#160;&#160;&#160;&#160;</text>
<polygon fill="#e7e2dd" stroke="transparent" points="700.64,-1212.96 700.64,-1272.96 1130.64,-1272.96 1130.64,-1212.96 700.64,-1212.96"/>
<polygon fill="none" stroke="#29235c" points="700.64,-1212.96 700.64,-1272.96 1130.64,-1272.96 1130.64,-1212.96 700.64,-1212.96"/>
<text text-anchor="start" x="711.64" y="-1234.16" font-family="Helvetica,sans-Serif" font-weight="bold" font-size="32.00" fill="#29235c">id</text>
<text text-anchor="start" x="736.53" y="-1234.16" font-family="Helvetica,sans-Serif" font-size="32.00" fill="#29235c"> &#160;&#160;&#160;</text>
<text text-anchor="start" x="977.42" y="-1234.16" font-family="Helvetica,sans-Serif" font-style="italic" font-size="32.00" fill="#29235c">INTEGER</text>
<polygon fill="#e7e2dd" stroke="transparent" points="700.64,-1152.96 700.64,-1212.96 1130.64,-1212.96 1130.64,-1152.96 700.64,-1152.96"/>
<polygon fill="none" stroke="#29235c" points="700.64,-1152.96 700.64,-1212.96 1130.64,-1212.96 1130.64,-1152.96 700.64,-1152.96"/>
<text text-anchor="start" x="711.64" y="-1173.16" font-family="Helvetica,sans-Serif" font-size="32.00" fill="#29235c">appointment_id &#160;&#160;&#160;</text>
<text text-anchor="start" x="977.42" y="-1174.16" font-family="Helvetica,sans-Serif" font-style="italic" font-size="32.00" fill="#29235c">INTEGER</text>
<polygon fill="#e7e2dd" stroke="transparent" points="700.64,-1092.96 700.64,-1152.96 1130.64,-1152.96 1130.64,-1092.96 700.64,-1092.96"/>
<polygon fill="none" stroke="#29235c" points="700.64,-1092.96 700.64,-1152.96 1130.64,-1152.96 1130.64,-1092.96 700.64,-1092.96"/>
<text text-anchor="start" x="711.64" y="-1113.16" font-family="Helvetica,sans-Serif" font-size="32.00" fill="#29235c">rating &#160;&#160;&#160;</text>
<text text-anchor="start" x="977.42" y="-1114.16" font-family="Helvetica,sans-Serif" font-style="italic" font-size="32.00" fill="#29235c">INTEGER</text>
<polygon fill="#e7e2dd" stroke="transparent" points="700.64,-1032.96 700.64,-1092.96 1130.64,-1092.96 1130.64,-1032.96 700.64,-1032.96"/>
<polygon fill="none" stroke="#29235c" points="700.64,-1032.96 700.64,-1092.96 1130.64,-1092.96 1130.64,-1032.96 700.64,-1032.96"/>
<text text-anchor="start" x="711.64" y="-1053.16" font-family="Helvetica,sans-Serif" font-size="32.00" fill="#29235c">comment &#160;&#160;&#160;</text>
<text text-anchor="start" x="888.54" y="-1054.16" font-family="Helvetica,sans-Serif" font-style="italic" font-size="32.00" fill="#29235c">VARCHAR(255)</text>
<polygon fill="none" stroke="#29235c" stroke-width="2" points="699.64,-1031.96 699.64,-1333.96 1131.64,-1333.96 1131.64,-1031.96 699.64,-1031.96"/>
</g>
<!-- AppointmentReview&#45;&gt;Appointment -->
<!-- AppointmentReview&#45;&gt;Appointment -->
<g id="edge12" class="edge">
<title>AppointmentReview:e&#45;&gt;Appointment:w</title>
<path fill="none" stroke="#29235c" stroke-width="3" d="M1131.64,-1182.96C1259.01,-1182.96 1293.1,-1170.64 1415.55,-1169.99"/>
<polygon fill="#29235c" stroke="#29235c" stroke-width="3" points="1415.7,-1173.49 1425.69,-1169.96 1415.68,-1166.49 1415.7,-1173.49"/>
<text text-anchor="middle" x="1419.47" y="-1141.16" font-family="Helvetica,sans-Serif" font-size="32.00" fill="#29235c">*</text>
<text text-anchor="middle" x="1122.75" y="-1192.56" font-family="Helvetica,sans-Serif" font-size="32.00" fill="#29235c">1</text>
</g>
<!-- AppointmentService -->
<g id="AppointmentService" class="node">
<title>AppointmentService</title>
<ellipse fill="none" stroke="black" stroke-width="0" cx="915.64" cy="-244.96" rx="308.1" ry="172.57"/>
<polygon fill="#1d71b8" stroke="transparent" points="699.64,-304.96 699.64,-364.96 1131.64,-364.96 1131.64,-304.96 699.64,-304.96"/>
<polygon fill="none" stroke="#29235c" points="699.64,-304.96 699.64,-364.96 1131.64,-364.96 1131.64,-304.96 699.64,-304.96"/>
<text text-anchor="start" x="710.25" y="-326.16" font-family="Helvetica,sans-Serif" font-weight="bold" font-size="32.00" fill="#ffffff"> &#160;&#160;&#160;&#160;&#160;&#160;AppointmentService &#160;&#160;&#160;&#160;&#160;&#160;</text>
<polygon fill="#e7e2dd" stroke="transparent" points="699.64,-244.96 699.64,-304.96 1131.64,-304.96 1131.64,-244.96 699.64,-244.96"/>
<polygon fill="none" stroke="#29235c" points="699.64,-244.96 699.64,-304.96 1131.64,-304.96 1131.64,-244.96 699.64,-244.96"/>
<text text-anchor="start" x="710.64" y="-266.16" font-family="Helvetica,sans-Serif" font-weight="bold" font-size="32.00" fill="#29235c">id</text>
<text text-anchor="start" x="735.53" y="-266.16" font-family="Helvetica,sans-Serif" font-size="32.00" fill="#29235c"> &#160;&#160;&#160;</text>
<text text-anchor="start" x="978.42" y="-266.16" font-family="Helvetica,sans-Serif" font-style="italic" font-size="32.00" fill="#29235c">INTEGER</text>
<polygon fill="#e7e2dd" stroke="transparent" points="699.64,-184.96 699.64,-244.96 1131.64,-244.96 1131.64,-184.96 699.64,-184.96"/>
<polygon fill="none" stroke="#29235c" points="699.64,-184.96 699.64,-244.96 1131.64,-244.96 1131.64,-184.96 699.64,-184.96"/>
<text text-anchor="start" x="710.64" y="-205.16" font-family="Helvetica,sans-Serif" font-size="32.00" fill="#29235c">appointment_id &#160;&#160;&#160;</text>
<text text-anchor="start" x="978.42" y="-206.16" font-family="Helvetica,sans-Serif" font-style="italic" font-size="32.00" fill="#29235c">INTEGER</text>
<polygon fill="#e7e2dd" stroke="transparent" points="699.64,-124.96 699.64,-184.96 1131.64,-184.96 1131.64,-124.96 699.64,-124.96"/>
<polygon fill="none" stroke="#29235c" points="699.64,-124.96 699.64,-184.96 1131.64,-184.96 1131.64,-124.96 699.64,-124.96"/>
<text text-anchor="start" x="710.64" y="-145.16" font-family="Helvetica,sans-Serif" font-size="32.00" fill="#29235c">service_id &#160;&#160;&#160;</text>
<text text-anchor="start" x="978.42" y="-146.16" font-family="Helvetica,sans-Serif" font-style="italic" font-size="32.00" fill="#29235c">INTEGER</text>
<polygon fill="none" stroke="#29235c" stroke-width="2" points="698.64,-123.96 698.64,-365.96 1132.64,-365.96 1132.64,-123.96 698.64,-123.96"/>
</g>
<!-- AppointmentService&#45;&gt;Appointment -->
<!-- AppointmentService&#45;&gt;Appointment -->
<g id="edge14" class="edge">
<title>AppointmentService:e&#45;&gt;Appointment:w</title>
<path fill="none" stroke="#29235c" stroke-width="3" d="M1132.64,-214.96C1351.16,-214.96 1208.33,-1140.35 1415.56,-1169.27"/>
<polygon fill="#29235c" stroke="#29235c" stroke-width="3" points="1415.48,-1172.77 1425.69,-1169.96 1415.96,-1165.79 1415.48,-1172.77"/>
<text text-anchor="middle" x="1431.92" y="-1179.56" font-family="Helvetica,sans-Serif" font-size="32.00" fill="#29235c">*</text>
<text text-anchor="middle" x="1123.75" y="-186.16" font-family="Helvetica,sans-Serif" font-size="32.00" fill="#29235c">1</text>
</g>
<!-- Service -->
<g id="Service" class="node">
<title>Service</title>
<ellipse fill="none" stroke="black" stroke-width="0" cx="1593.69" cy="-214.96" rx="321.05" ry="214.92"/>
<polygon fill="#1d71b8" stroke="transparent" points="1368.69,-304.96 1368.69,-364.96 1818.69,-364.96 1818.69,-304.96 1368.69,-304.96"/>
<polygon fill="none" stroke="#29235c" points="1368.69,-304.96 1368.69,-364.96 1818.69,-364.96 1818.69,-304.96 1368.69,-304.96"/>
<text text-anchor="start" x="1478.11" y="-326.16" font-family="Helvetica,sans-Serif" font-weight="bold" font-size="32.00" fill="#ffffff"> &#160;&#160;&#160;&#160;&#160;&#160;Service &#160;&#160;&#160;&#160;&#160;&#160;</text>
<polygon fill="#e7e2dd" stroke="transparent" points="1368.69,-244.96 1368.69,-304.96 1818.69,-304.96 1818.69,-244.96 1368.69,-244.96"/>
<polygon fill="none" stroke="#29235c" points="1368.69,-244.96 1368.69,-304.96 1818.69,-304.96 1818.69,-244.96 1368.69,-244.96"/>
<text text-anchor="start" x="1379.69" y="-266.16" font-family="Helvetica,sans-Serif" font-weight="bold" font-size="32.00" fill="#29235c">id</text>
<text text-anchor="start" x="1404.58" y="-266.16" font-family="Helvetica,sans-Serif" font-size="32.00" fill="#29235c"> &#160;&#160;&#160;</text>
<text text-anchor="start" x="1665.48" y="-266.16" font-family="Helvetica,sans-Serif" font-style="italic" font-size="32.00" fill="#29235c">INTEGER</text>
<polygon fill="#e7e2dd" stroke="transparent" points="1368.69,-184.96 1368.69,-244.96 1818.69,-244.96 1818.69,-184.96 1368.69,-184.96"/>
<polygon fill="none" stroke="#29235c" points="1368.69,-184.96 1368.69,-244.96 1818.69,-244.96 1818.69,-184.96 1368.69,-184.96"/>
<text text-anchor="start" x="1379.61" y="-205.16" font-family="Helvetica,sans-Serif" font-size="32.00" fill="#29235c">service_type &#160;&#160;&#160;</text>
<text text-anchor="start" x="1594.54" y="-206.16" font-family="Helvetica,sans-Serif" font-style="italic" font-size="32.00" fill="#29235c">VARCHAR(50)</text>
<polygon fill="#e7e2dd" stroke="transparent" points="1368.69,-124.96 1368.69,-184.96 1818.69,-184.96 1818.69,-124.96 1368.69,-124.96"/>
<polygon fill="none" stroke="#29235c" points="1368.69,-124.96 1368.69,-184.96 1818.69,-184.96 1818.69,-124.96 1368.69,-124.96"/>
<text text-anchor="start" x="1379.69" y="-145.16" font-family="Helvetica,sans-Serif" font-size="32.00" fill="#29235c">description &#160;&#160;&#160;</text>
<text text-anchor="start" x="1576.6" y="-146.16" font-family="Helvetica,sans-Serif" font-style="italic" font-size="32.00" fill="#29235c">VARCHAR(255)</text>
<polygon fill="#e7e2dd" stroke="transparent" points="1368.69,-64.96 1368.69,-124.96 1818.69,-124.96 1818.69,-64.96 1368.69,-64.96"/>
<polygon fill="none" stroke="#29235c" points="1368.69,-64.96 1368.69,-124.96 1818.69,-124.96 1818.69,-64.96 1368.69,-64.96"/>
<text text-anchor="start" x="1379.69" y="-85.16" font-family="Helvetica,sans-Serif" font-size="32.00" fill="#29235c">price &#160;&#160;&#160;</text>
<text text-anchor="start" x="1704.57" y="-86.16" font-family="Helvetica,sans-Serif" font-style="italic" font-size="32.00" fill="#29235c">FLOAT</text>
<polygon fill="none" stroke="#29235c" stroke-width="2" points="1367.69,-63.96 1367.69,-365.96 1819.69,-365.96 1819.69,-63.96 1367.69,-63.96"/>
</g>
<!-- AppointmentService&#45;&gt;Service -->
<!-- AppointmentService&#45;&gt;Service -->
<g id="edge16" class="edge">
<title>AppointmentService:e&#45;&gt;Service:w</title>
<path fill="none" stroke="#29235c" stroke-width="3" d="M1132.64,-154.96C1246.5,-154.96 1250.27,-268.03 1357.68,-274.66"/>
<polygon fill="#29235c" stroke="#29235c" stroke-width="3" points="1357.59,-278.16 1367.69,-274.96 1357.8,-271.16 1357.59,-278.16"/>
<text text-anchor="middle" x="1361.47" y="-246.16" font-family="Helvetica,sans-Serif" font-size="32.00" fill="#29235c">*</text>
<text text-anchor="middle" x="1123.75" y="-126.16" font-family="Helvetica,sans-Serif" font-size="32.00" fill="#29235c">1</text>
</g>
<!-- Invoice -->
<g id="Invoice" class="node">
<title>Invoice</title>
<ellipse fill="none" stroke="black" stroke-width="0" cx="279.31" cy="-722.96" rx="279.11" ry="214.92"/>
<polygon fill="#1d71b8" stroke="transparent" points="84.31,-812.96 84.31,-872.96 475.31,-872.96 475.31,-812.96 84.31,-812.96"/>
<polygon fill="none" stroke="#29235c" points="84.31,-812.96 84.31,-872.96 475.31,-872.96 475.31,-812.96 84.31,-812.96"/>
<text text-anchor="start" x="166.88" y="-834.16" font-family="Helvetica,sans-Serif" font-weight="bold" font-size="32.00" fill="#ffffff"> &#160;&#160;&#160;&#160;&#160;&#160;Invoice &#160;&#160;&#160;&#160;&#160;&#160;</text>
<polygon fill="#e7e2dd" stroke="transparent" points="84.31,-752.96 84.31,-812.96 475.31,-812.96 475.31,-752.96 84.31,-752.96"/>
<polygon fill="none" stroke="#29235c" points="84.31,-752.96 84.31,-812.96 475.31,-812.96 475.31,-752.96 84.31,-752.96"/>
<text text-anchor="start" x="95.31" y="-774.16" font-family="Helvetica,sans-Serif" font-weight="bold" font-size="32.00" fill="#29235c">id</text>
<text text-anchor="start" x="120.2" y="-774.16" font-family="Helvetica,sans-Serif" font-size="32.00" fill="#29235c"> &#160;&#160;&#160;</text>
<text text-anchor="start" x="322.09" y="-774.16" font-family="Helvetica,sans-Serif" font-style="italic" font-size="32.00" fill="#29235c">INTEGER</text>
<polygon fill="#e7e2dd" stroke="transparent" points="84.31,-692.96 84.31,-752.96 475.31,-752.96 475.31,-692.96 84.31,-692.96"/>
<polygon fill="none" stroke="#29235c" points="84.31,-692.96 84.31,-752.96 475.31,-752.96 475.31,-692.96 84.31,-692.96"/>
<text text-anchor="start" x="95.31" y="-713.16" font-family="Helvetica,sans-Serif" font-size="32.00" fill="#29235c">payment_id &#160;&#160;&#160;</text>
<text text-anchor="start" x="322.09" y="-714.16" font-family="Helvetica,sans-Serif" font-style="italic" font-size="32.00" fill="#29235c">INTEGER</text>
<polygon fill="#e7e2dd" stroke="transparent" points="84.31,-632.96 84.31,-692.96 475.31,-692.96 475.31,-632.96 84.31,-632.96"/>
<polygon fill="none" stroke="#29235c" points="84.31,-632.96 84.31,-692.96 475.31,-692.96 475.31,-632.96 84.31,-632.96"/>
<text text-anchor="start" x="95.31" y="-653.16" font-family="Helvetica,sans-Serif" font-size="32.00" fill="#29235c">amount_due &#160;&#160;&#160;</text>
<text text-anchor="start" x="361.19" y="-654.16" font-family="Helvetica,sans-Serif" font-style="italic" font-size="32.00" fill="#29235c">FLOAT</text>
<polygon fill="#e7e2dd" stroke="transparent" points="84.31,-572.96 84.31,-632.96 475.31,-632.96 475.31,-572.96 84.31,-572.96"/>
<polygon fill="none" stroke="#29235c" points="84.31,-572.96 84.31,-632.96 475.31,-632.96 475.31,-572.96 84.31,-572.96"/>
<text text-anchor="start" x="95.26" y="-593.16" font-family="Helvetica,sans-Serif" font-size="32.00" fill="#29235c">date_issued &#160;&#160;&#160;</text>
<text text-anchor="start" x="302.92" y="-594.16" font-family="Helvetica,sans-Serif" font-style="italic" font-size="32.00" fill="#29235c">DATETIME</text>
<polygon fill="none" stroke="#29235c" stroke-width="2" points="82.81,-571.96 82.81,-873.96 475.81,-873.96 475.81,-571.96 82.81,-571.96"/>
</g>
<!-- Payment -->
<g id="Payment" class="node">
<title>Payment</title>
<ellipse fill="none" stroke="black" stroke-width="0" cx="915.64" cy="-692.96" rx="298.3" ry="257.27"/>
<polygon fill="#1d71b8" stroke="transparent" points="706.64,-812.96 706.64,-872.96 1124.64,-872.96 1124.64,-812.96 706.64,-812.96"/>
<polygon fill="none" stroke="#29235c" points="706.64,-812.96 706.64,-872.96 1124.64,-872.96 1124.64,-812.96 706.64,-812.96"/>
<text text-anchor="start" x="790.26" y="-834.16" font-family="Helvetica,sans-Serif" font-weight="bold" font-size="32.00" fill="#ffffff"> &#160;&#160;&#160;&#160;&#160;&#160;Payment &#160;&#160;&#160;&#160;&#160;&#160;</text>
<polygon fill="#e7e2dd" stroke="transparent" points="706.64,-752.96 706.64,-812.96 1124.64,-812.96 1124.64,-752.96 706.64,-752.96"/>
<polygon fill="none" stroke="#29235c" points="706.64,-752.96 706.64,-812.96 1124.64,-812.96 1124.64,-752.96 706.64,-752.96"/>
<text text-anchor="start" x="717.64" y="-774.16" font-family="Helvetica,sans-Serif" font-weight="bold" font-size="32.00" fill="#29235c">id</text>
<text text-anchor="start" x="742.53" y="-774.16" font-family="Helvetica,sans-Serif" font-size="32.00" fill="#29235c"> &#160;&#160;&#160;</text>
<text text-anchor="start" x="971.42" y="-774.16" font-family="Helvetica,sans-Serif" font-style="italic" font-size="32.00" fill="#29235c">INTEGER</text>
<polygon fill="#e7e2dd" stroke="transparent" points="706.64,-692.96 706.64,-752.96 1124.64,-752.96 1124.64,-692.96 706.64,-692.96"/>
<polygon fill="none" stroke="#29235c" points="706.64,-692.96 706.64,-752.96 1124.64,-752.96 1124.64,-692.96 706.64,-692.96"/>
<text text-anchor="start" x="717.64" y="-713.16" font-family="Helvetica,sans-Serif" font-size="32.00" fill="#29235c">amount &#160;&#160;&#160;</text>
<text text-anchor="start" x="1010.52" y="-714.16" font-family="Helvetica,sans-Serif" font-style="italic" font-size="32.00" fill="#29235c">FLOAT</text>
<polygon fill="#e7e2dd" stroke="transparent" points="706.64,-632.96 706.64,-692.96 1124.64,-692.96 1124.64,-632.96 706.64,-632.96"/>
<polygon fill="none" stroke="#29235c" points="706.64,-632.96 706.64,-692.96 1124.64,-692.96 1124.64,-632.96 706.64,-632.96"/>
<text text-anchor="start" x="717.64" y="-653.16" font-family="Helvetica,sans-Serif" font-size="32.00" fill="#29235c">date &#160;&#160;&#160;</text>
<text text-anchor="start" x="951.87" y="-654.16" font-family="Helvetica,sans-Serif" font-style="italic" font-size="32.00" fill="#29235c">DATETIME</text>
<polygon fill="#e7e2dd" stroke="transparent" points="706.64,-572.96 706.64,-632.96 1124.64,-632.96 1124.64,-572.96 706.64,-572.96"/>
<polygon fill="none" stroke="#29235c" points="706.64,-572.96 706.64,-632.96 1124.64,-632.96 1124.64,-572.96 706.64,-572.96"/>
<text text-anchor="start" x="717.64" y="-593.16" font-family="Helvetica,sans-Serif" font-size="32.00" fill="#29235c">method &#160;&#160;&#160;</text>
<text text-anchor="start" x="900.33" y="-594.16" font-family="Helvetica,sans-Serif" font-style="italic" font-size="32.00" fill="#29235c">VARCHAR(50)</text>
<polygon fill="#e7e2dd" stroke="transparent" points="706.64,-512.96 706.64,-572.96 1124.64,-572.96 1124.64,-512.96 706.64,-512.96"/>
<polygon fill="none" stroke="#29235c" points="706.64,-512.96 706.64,-572.96 1124.64,-572.96 1124.64,-512.96 706.64,-512.96"/>
<text text-anchor="start" x="717.49" y="-533.16" font-family="Helvetica,sans-Serif" font-size="32.00" fill="#29235c">appointment_id &#160;&#160;&#160;</text>
<text text-anchor="start" x="971.53" y="-534.16" font-family="Helvetica,sans-Serif" font-style="italic" font-size="32.00" fill="#29235c">INTEGER</text>
<polygon fill="none" stroke="#29235c" stroke-width="2" points="705.64,-511.96 705.64,-873.96 1125.64,-873.96 1125.64,-511.96 705.64,-511.96"/>
</g>
<!-- Invoice&#45;&gt;Payment -->
<!-- Invoice&#45;&gt;Payment -->
<g id="edge18" class="edge">
<title>Invoice:e&#45;&gt;Payment:w</title>
<path fill="none" stroke="#29235c" stroke-width="3" d="M476.31,-722.96C578.17,-722.96 598.95,-779.04 695.43,-782.77"/>
<polygon fill="#29235c" stroke="#29235c" stroke-width="3" points="695.58,-786.27 705.64,-782.96 695.71,-779.27 695.58,-786.27"/>
<text text-anchor="middle" x="699.42" y="-792.56" font-family="Helvetica,sans-Serif" font-size="32.00" fill="#29235c">*</text>
<text text-anchor="middle" x="467.41" y="-694.16" font-family="Helvetica,sans-Serif" font-size="32.00" fill="#29235c">1</text>
</g>
<!-- Payment&#45;&gt;Appointment -->
<!-- Payment&#45;&gt;Appointment -->
<g id="edge20" class="edge">
<title>Payment:e&#45;&gt;Appointment:w</title>
<path fill="none" stroke="#29235c" stroke-width="3" d="M1125.64,-542.96C1431.1,-542.96 1123.82,-1155.96 1415.52,-1169.72"/>
<polygon fill="#29235c" stroke="#29235c" stroke-width="3" points="1415.62,-1173.23 1425.69,-1169.96 1415.78,-1166.23 1415.62,-1173.23"/>
<text text-anchor="middle" x="1431.92" y="-1141.16" font-family="Helvetica,sans-Serif" font-size="32.00" fill="#29235c">*</text>
<text text-anchor="middle" x="1116.75" y="-514.16" font-family="Helvetica,sans-Serif" font-size="32.00" fill="#29235c">1</text>
</g>
<!-- WalkerAvailability -->
<g id="WalkerAvailability" class="node">
<title>WalkerAvailability</title>
<ellipse fill="none" stroke="black" stroke-width="0" cx="1593.69" cy="-2005.96" rx="283.6" ry="214.92"/>
<polygon fill="#1d71b8" stroke="transparent" points="1395.69,-2095.96 1395.69,-2155.96 1792.69,-2155.96 1792.69,-2095.96 1395.69,-2095.96"/>
<polygon fill="none" stroke="#29235c" points="1395.69,-2095.96 1395.69,-2155.96 1792.69,-2155.96 1792.69,-2095.96 1395.69,-2095.96"/>
<text text-anchor="start" x="1406.62" y="-2117.16" font-family="Helvetica,sans-Serif" font-weight="bold" font-size="32.00" fill="#ffffff"> &#160;&#160;&#160;&#160;&#160;&#160;WalkerAvailability &#160;&#160;&#160;&#160;&#160;&#160;</text>
<polygon fill="#e7e2dd" stroke="transparent" points="1395.69,-2035.96 1395.69,-2095.96 1792.69,-2095.96 1792.69,-2035.96 1395.69,-2035.96"/>
<polygon fill="none" stroke="#29235c" points="1395.69,-2035.96 1395.69,-2095.96 1792.69,-2095.96 1792.69,-2035.96 1395.69,-2035.96"/>
<text text-anchor="start" x="1406.69" y="-2057.16" font-family="Helvetica,sans-Serif" font-weight="bold" font-size="32.00" fill="#29235c">id</text>
<text text-anchor="start" x="1431.58" y="-2057.16" font-family="Helvetica,sans-Serif" font-size="32.00" fill="#29235c"> &#160;&#160;&#160;</text>
<text text-anchor="start" x="1639.48" y="-2057.16" font-family="Helvetica,sans-Serif" font-style="italic" font-size="32.00" fill="#29235c">INTEGER</text>
<polygon fill="#e7e2dd" stroke="transparent" points="1395.69,-1975.96 1395.69,-2035.96 1792.69,-2035.96 1792.69,-1975.96 1395.69,-1975.96"/>
<polygon fill="none" stroke="#29235c" points="1395.69,-1975.96 1395.69,-2035.96 1792.69,-2035.96 1792.69,-1975.96 1395.69,-1975.96"/>
<text text-anchor="start" x="1406.69" y="-1996.16" font-family="Helvetica,sans-Serif" font-size="32.00" fill="#29235c">walker_id &#160;&#160;&#160;</text>
<text text-anchor="start" x="1639.48" y="-1997.16" font-family="Helvetica,sans-Serif" font-style="italic" font-size="32.00" fill="#29235c">INTEGER</text>
<polygon fill="#e7e2dd" stroke="transparent" points="1395.69,-1915.96 1395.69,-1975.96 1792.69,-1975.96 1792.69,-1915.96 1395.69,-1915.96"/>
<polygon fill="none" stroke="#29235c" points="1395.69,-1915.96 1395.69,-1975.96 1792.69,-1975.96 1792.69,-1915.96 1395.69,-1915.96"/>
<text text-anchor="start" x="1406.69" y="-1936.16" font-family="Helvetica,sans-Serif" font-size="32.00" fill="#29235c">date &#160;&#160;&#160;</text>
<text text-anchor="start" x="1696.36" y="-1937.16" font-family="Helvetica,sans-Serif" font-style="italic" font-size="32.00" fill="#29235c">DATE</text>
<polygon fill="#e7e2dd" stroke="transparent" points="1395.69,-1855.96 1395.69,-1915.96 1792.69,-1915.96 1792.69,-1855.96 1395.69,-1855.96"/>
<polygon fill="none" stroke="#29235c" points="1395.69,-1855.96 1395.69,-1915.96 1792.69,-1915.96 1792.69,-1855.96 1395.69,-1855.96"/>
<text text-anchor="start" x="1406.69" y="-1876.16" font-family="Helvetica,sans-Serif" font-size="32.00" fill="#29235c">available &#160;&#160;&#160;</text>
<text text-anchor="start" x="1627" y="-1877.16" font-family="Helvetica,sans-Serif" font-style="italic" font-size="32.00" fill="#29235c">BOOLEAN</text>
<polygon fill="none" stroke="#29235c" stroke-width="2" points="1394.19,-1854.96 1394.19,-2156.96 1793.19,-2156.96 1793.19,-1854.96 1394.19,-1854.96"/>
</g>
<!-- WalkerAvailability&#45;&gt;Walker -->
<!-- WalkerAvailability&#45;&gt;Walker -->
<g id="edge22" class="edge">
<title>WalkerAvailability:e&#45;&gt;Walker:w</title>
<path fill="none" stroke="#29235c" stroke-width="3" d="M1793.69,-2005.96C1936.17,-2005.96 1884.08,-1786.1 2017.06,-1775.37"/>
<polygon fill="#29235c" stroke="#29235c" stroke-width="3" points="2017.55,-1778.85 2027.4,-1774.96 2017.27,-1771.86 2017.55,-1778.85"/>
<text text-anchor="middle" x="2033.62" y="-1784.56" font-family="Helvetica,sans-Serif" font-size="32.00" fill="#29235c">*</text>
<text text-anchor="middle" x="1784.8" y="-2015.56" font-family="Helvetica,sans-Serif" font-size="32.00" fill="#29235c">1</text>
</g>
</g>
</svg>
